<svg id="Layer_1_copy" data-name="Layer 1 copy" xmlns="http://www.w3.org/2000/svg" viewBox="0 0 1121 50.19">
  <defs>
    <style>
      .cls-1 {
        fill: #e2cd07;
      }
    </style>
  </defs>
  <polygon class="cls-1" points="46 0.01 25.67 0 0 50.18 20.33 50.19 46 0.01"/>
  <polygon class="cls-1" points="87 0.01 66.67 0 41 50.18 61.33 50.19 87 0.01"/>
  <polygon class="cls-1" points="128 0.01 107.67 0 82 50.18 102.33 50.19 128 0.01"/>
  <polygon class="cls-1" points="169 0.01 148.67 0 123 50.18 143.33 50.19 169 0.01"/>
  <polygon class="cls-1" points="210 0.01 189.67 0 164 50.18 184.33 50.19 210 0.01"/>
  <polygon class="cls-1" points="251 0.01 230.67 0 205 50.18 225.33 50.19 251 0.01"/>
  <polygon class="cls-1" points="292 0.01 271.67 0 246 50.18 266.33 50.19 292 0.01"/>
  <polygon class="cls-1" points="332 0.01 311.67 0 286 50.18 306.33 50.19 332 0.01"/>
  <polygon class="cls-1" points="372 0.01 351.67 0 326 50.18 346.33 50.19 372 0.01"/>
  <polygon class="cls-1" points="1075 0.01 1095.33 0 1121 50.18 1100.67 50.19 1075 0.01"/>
  <polygon class="cls-1" points="1033 0.01 1053.33 0 1079 50.18 1058.67 50.19 1033 0.01"/>
  <polygon class="cls-1" points="991 0.01 1011.33 0 1037 50.18 1016.67 50.19 991 0.01"/>
  <polygon class="cls-1" points="949 0.01 969.33 0 995 50.18 974.67 50.19 949 0.01"/>
  <polygon class="cls-1" points="907 0.01 927.33 0 953 50.18 932.67 50.19 907 0.01"/>
  <polygon class="cls-1" points="865 0.01 885.33 0 911 50.18 890.67 50.19 865 0.01"/>
  <polygon class="cls-1" points="823 0.01 843.33 0 869 50.18 848.67 50.19 823 0.01"/>
  <polygon class="cls-1" points="781 0.01 801.33 0 827 50.18 806.67 50.19 781 0.01"/>
  <polygon class="cls-1" points="739 0.01 759.33 0 785 50.18 764.67 50.19 739 0.01"/>
</svg>
