<svg id="Layer_1" data-name="Layer 1" xmlns="http://www.w3.org/2000/svg" viewBox="0 0 1121 50.19">
  <defs>
    <style>
      .cls-1 {
        fill: #e2cd07;
      }
    </style>
  </defs>
  <polygon class="cls-1" points="46 50.18 25.67 50.19 0 0.01 20.33 0 46 50.18"/>
  <polygon class="cls-1" points="87 50.18 66.67 50.19 41 0.01 61.33 0 87 50.18"/>
  <polygon class="cls-1" points="128 50.18 107.67 50.19 82 0.01 102.33 0 128 50.18"/>
  <polygon class="cls-1" points="169 50.18 148.67 50.19 123 0.01 143.33 0 169 50.18"/>
  <polygon class="cls-1" points="210 50.18 189.67 50.19 164 0.01 184.33 0 210 50.18"/>
  <polygon class="cls-1" points="251 50.18 230.67 50.19 205 0.01 225.33 0 251 50.18"/>
  <polygon class="cls-1" points="292 50.18 271.67 50.19 246 0.01 266.33 0 292 50.18"/>
  <polygon class="cls-1" points="332 50.18 311.67 50.19 286 0.01 306.33 0 332 50.18"/>
  <polygon class="cls-1" points="372 50.18 351.67 50.19 326 0.01 346.33 0 372 50.18"/>
  <polygon class="cls-1" points="412 50.18 391.67 50.19 366 0.01 386.33 0 412 50.18"/>
  <polygon class="cls-1" points="1075 50.18 1095.33 50.19 1121 0.01 1100.67 0 1075 50.18"/>
  <polygon class="cls-1" points="1033 50.18 1053.33 50.19 1079 0.01 1058.67 0 1033 50.18"/>
  <polygon class="cls-1" points="991 50.18 1011.33 50.19 1037 0.01 1016.67 0 991 50.18"/>
  <polygon class="cls-1" points="949 50.18 969.33 50.19 995 0.01 974.67 0 949 50.18"/>
  <polygon class="cls-1" points="907 50.18 927.33 50.19 953 0.01 932.67 0 907 50.18"/>
  <polygon class="cls-1" points="865 50.18 885.33 50.19 911 0.01 890.67 0 865 50.18"/>
  <polygon class="cls-1" points="823 50.18 843.33 50.19 869 0.01 848.67 0 823 50.18"/>
  <polygon class="cls-1" points="781 50.18 801.33 50.19 827 0.01 806.67 0 781 50.18"/>
  <polygon class="cls-1" points="739 50.18 759.33 50.19 785 0.01 764.67 0 739 50.18"/>
  <polygon class="cls-1" points="697 50.18 717.33 50.19 743 0.01 722.67 0 697 50.18"/>
</svg>
