<svg xmlns="http://www.w3.org/2000/svg" xmlns:xlink="http://www.w3.org/1999/xlink" viewBox="0 0 500 435.55">
  <defs>
    <style>
      .cls-1 {
        fill: lime;
      }

      .cls-2 {
        fill: #0c0;
      }

      .cls-3 {
        fill: url(#linear-gradient);
      }

      .cls-4 {
        fill: blue;
      }

      .cls-5 {
        fill: #00c;
      }

      .cls-6 {
        fill: url(#linear-gradient-2);
      }

      .cls-7 {
        fill: red;
      }

      .cls-8 {
        fill: #c00;
      }

      .cls-9 {
        fill: url(#linear-gradient-3);
      }

      .cls-10 {
        fill: #fff;
      }
    </style>
    <linearGradient id="linear-gradient" x1="249.28" y1="9.43" x2="249.28" y2="418.24" gradientUnits="userSpaceOnUse">
      <stop offset="0" stop-opacity="0"/>
      <stop offset="1"/>
    </linearGradient>
    <linearGradient id="linear-gradient-2" x1="390.51" y1="107.24" x2="390.51" y2="419.09" xlink:href="#linear-gradient"/>
    <linearGradient id="linear-gradient-3" x1="111.12" y1="107.21" x2="111.12" y2="418.22" xlink:href="#linear-gradient"/>
  </defs>
  <g id="Layer_7" data-name="Layer 7">
    <g id="green">
      <polygon class="cls-1" points="249.81 0 334.06 64.26 334.06 415.04 249.28 418.17 249.81 0"/>
      <polygon class="cls-2" points="164.49 64.61 249.81 0 249.28 418.17 164.49 414.55 164.49 64.61"/>
      <polygon class="cls-3" points="249.81 0 164.49 64.61 164.49 414.55 249.28 418.17 334.06 415.04 334.06 64.26 249.81 0"/>
    </g>
    <g id="green-2" data-name="green">
      <polygon class="cls-4" points="390.57 100.04 460 160.48 461.28 364.65 390.79 392.84 390.57 100.04"/>
      <polygon class="cls-5" points="319.74 153.72 390.57 100.04 390.79 392.84 319.74 419.04 319.74 153.72"/>
      <polygon class="cls-6" points="390.57 100.04 319.74 153.72 319.74 419.04 393.06 392.01 461.28 364.65 460 160.48 390.57 100.04"/>
    </g>
    <g id="green-3" data-name="green">
      <polygon class="cls-7" points="111.32 100.03 182.66 153.98 182.72 418.17 112.83 390.95 111.32 100.03"/>
      <polygon class="cls-8" points="39.52 159.82 111.32 100.03 112.83 390.95 39.66 362.46 39.52 159.82"/>
      <polygon class="cls-9" points="111.32 100.03 39.52 159.82 39.66 362.46 182.72 418.17 182.66 153.98 111.32 100.03"/>
    </g>
  </g>
  <g id="Layer_4_copy" data-name="Layer 4 copy">
    <polygon points="312.05 291.87 284.11 278.03 284.11 340.26 217.09 340.26 217.09 277.5 188.07 291.97 0 336 0 411.33 188.06 423.65 217.09 435.53 217.09 373.11 284.11 373.11 284.11 435.55 312.04 423.65 500 411.73 500 335.96 312.05 291.87"/>
    <g>
      <path class="cls-10" d="M18.3,404.69C11,404.43,5.86,391.23,5.86,374,5.86,356.69,11,344,18.3,342.53l14.87-2.95-1.5,5.28L18.3,347.27c-6.17,1.11-10.59,11.81-10.59,26.89s4.39,25.77,10.59,25.89l11.47.21V374l-14.69,1.12,1.22-4.33L32,369.33v35.86Z"/>
      <path class="cls-10" d="M47.62,405.75l1.59-5.12,26.22.48-17.82-60-17.5,64.34-2.77-.1,18.5-68.59c.32-1.23,1-2.64,1.77-2.8s1.47.89,1.84,2.1L80.9,407Z"/>
      <path class="cls-10" d="M94.65,407.46v-74l-20.34,3.67L76.46,331l46-9.12-2.6,7.07L98,332.9v74.68Z"/>
      <path class="cls-10" d="M130.71,408.76v-88.5l54.57-10.81-3.57,8.36-46.8,8.44v34.37l47.89-4.32-3.16,7-44.73,3.33v35.58l50.92.95-3.57,7.45Z"/>
    </g>
    <g>
      <path class="cls-10" d="M349.19,410.49c-22.83.89-35.4-14.48-35.4-49.88s12.57-48.62,35.4-44.08c20.54,4.07,30,19.28,30,49.31S369.73,409.69,349.19,410.49Zm0-87c-20-3.61-30.25,6.82-30.25,37.56s10.28,43.1,30.25,42.67c18.14-.39,26.17-11.36,26.17-38.16S367.33,326.74,349.19,323.46Z"/>
      <path class="cls-10" d="M425.25,332.83l2.89.57v41c0,22-6.14,33.22-19.21,33.73-16.49.64-24.11-11.56-24.11-36.56V325l3.67.71v46.18c0,21.19,6.22,30.85,20.44,30.54,12.21-.26,16.32-9.14,16.32-28.14Z"/>
      <path class="cls-10" d="M431.55,406.1l1.88-5.42,23.2-.41c5.17-.09,7.6-4.29,7.6-13.16,0-9.84-2.85-12.55-8.49-13l-11.26-.82c-7.47-.54-11.14-6.69-11.14-19.33,0-12.95,3.76-18.86,11.49-17.35L466,340.77l-1.48,4.63-19.83-3.52c-5.78-1-8.75,3-8.75,12.79,0,10.61,3.38,13.56,9.7,14.12l11.22,1c6.4.56,9.51,5.91,9.51,17.39,0,11.78-3,17.82-9.91,18.06Z"/>
      <path class="cls-10" d="M469.53,404.77V341.46l22.82,4.44-1.21,4.21-19.46-3.45V370.8l19.83,1.76-1.09,3.84L471.68,375v25l20.85-.37-1.2,4.37Z"/>
    </g>
    <path class="cls-10" d="M294.89,413.6V360.41h-89V413.6l-9.18-3.1V306.43l9.18-4.58v50.63h89V301.85l9.18,4.58V410.5Z"/>
  </g>
</svg>
