<svg id="Layer_5" data-name="Layer 5" xmlns="http://www.w3.org/2000/svg" viewBox="0 0 1048.37 336.27">
  <defs>
    <style>
      .cls-1, .cls-5 {
        fill: #666;
      }

      .cls-10, .cls-13, .cls-14, .cls-15, .cls-2, .cls-8, .cls-9 {
        fill: none;
      }

      .cls-10, .cls-13, .cls-14, .cls-15, .cls-2, .cls-9 {
        stroke: #000;
        stroke-linecap: round;
      }

      .cls-13, .cls-14, .cls-15, .cls-2, .cls-5, .cls-8, .cls-9 {
        stroke-miterlimit: 10;
      }

      .cls-2 {
        stroke-width: 1.47px;
      }

      .cls-3 {
        fill: #b3b3b3;
      }

      .cls-4 {
        fill: gray;
      }

      .cls-5 {
        stroke: #333;
        stroke-width: 1.12px;
      }

      .cls-6 {
        fill: #4d4d4d;
      }

      .cls-7 {
        fill: #333;
      }

      .cls-8 {
        stroke: #ccc;
        stroke-width: 0.71px;
      }

      .cls-10, .cls-9 {
        stroke-width: 1.16px;
      }

      .cls-10 {
        stroke-linejoin: round;
      }

      .cls-11 {
        fill: #1a1a1a;
      }

      .cls-12 {
        fill: #ccc;
      }

      .cls-13 {
        stroke-width: 1.55px;
      }

      .cls-14 {
        stroke-width: 1.56px;
      }

      .cls-15 {
        stroke-width: 1.5px;
      }
    </style>
  </defs>
  <g id="P">
    <g>
      <path class="cls-1" d="M873.3,288.34V131.45c7.23-2.9,13.06-2.9,19,.14V288.76C885.71,291.67,879.88,292,873.3,288.34Z"/>
      <line class="cls-2" x1="892.29" y1="135.62" x2="873.32" y2="135.62"/>
      <line class="cls-2" x1="892.29" y1="139.74" x2="873.32" y2="139.74"/>
      <line class="cls-2" x1="892.29" y1="143.86" x2="873.32" y2="143.86"/>
      <line class="cls-2" x1="892.29" y1="147.97" x2="873.32" y2="147.97"/>
      <line class="cls-2" x1="892.29" y1="152.09" x2="873.32" y2="152.09"/>
      <line class="cls-2" x1="892.29" y1="156.2" x2="873.32" y2="156.2"/>
      <line class="cls-2" x1="892.29" y1="160.32" x2="873.32" y2="160.32"/>
      <line class="cls-2" x1="892.29" y1="164.43" x2="873.32" y2="164.43"/>
      <line class="cls-2" x1="892.29" y1="168.55" x2="873.32" y2="168.55"/>
      <line class="cls-2" x1="892.29" y1="172.66" x2="873.32" y2="172.66"/>
      <line class="cls-2" x1="892.29" y1="176.78" x2="873.32" y2="176.78"/>
      <line class="cls-2" x1="892.29" y1="180.89" x2="873.32" y2="180.89"/>
      <line class="cls-2" x1="892.29" y1="185.01" x2="873.32" y2="185.01"/>
      <line class="cls-2" x1="892.29" y1="189.12" x2="873.32" y2="189.12"/>
      <line class="cls-2" x1="892.29" y1="193.24" x2="873.32" y2="193.24"/>
      <line class="cls-2" x1="892.29" y1="197.35" x2="873.32" y2="197.35"/>
      <line class="cls-2" x1="892.29" y1="201.47" x2="873.32" y2="201.47"/>
      <line class="cls-2" x1="892.29" y1="205.59" x2="873.32" y2="205.59"/>
      <line class="cls-2" x1="892.29" y1="209.7" x2="873.32" y2="209.7"/>
      <line class="cls-2" x1="892.29" y1="213.82" x2="873.32" y2="213.82"/>
      <line class="cls-2" x1="892.29" y1="217.93" x2="873.32" y2="217.93"/>
      <line class="cls-2" x1="892.29" y1="222.05" x2="873.32" y2="222.05"/>
      <line class="cls-2" x1="892.29" y1="226.16" x2="873.32" y2="226.16"/>
      <line class="cls-2" x1="892.29" y1="230.28" x2="873.32" y2="230.28"/>
      <line class="cls-2" x1="892.29" y1="234.39" x2="873.32" y2="234.39"/>
      <line class="cls-2" x1="892.29" y1="238.51" x2="873.32" y2="238.51"/>
      <line class="cls-2" x1="892.29" y1="242.62" x2="873.32" y2="242.62"/>
      <line class="cls-2" x1="892.29" y1="246.74" x2="873.32" y2="246.74"/>
      <line class="cls-2" x1="892.29" y1="250.85" x2="873.32" y2="250.85"/>
      <line class="cls-2" x1="892.29" y1="254.97" x2="873.32" y2="254.97"/>
      <line class="cls-2" x1="892.29" y1="259.09" x2="873.32" y2="259.09"/>
      <line class="cls-2" x1="892.29" y1="263.2" x2="873.32" y2="263.2"/>
      <line class="cls-2" x1="892.29" y1="267.32" x2="873.32" y2="267.32"/>
      <line class="cls-2" x1="892.29" y1="271.43" x2="873.32" y2="271.43"/>
      <line class="cls-2" x1="892.29" y1="275.55" x2="873.32" y2="275.55"/>
      <line class="cls-2" x1="892.29" y1="279.66" x2="873.32" y2="279.66"/>
      <line class="cls-2" x1="892.29" y1="283.78" x2="873.32" y2="283.78"/>
    </g>
    <rect class="cls-3" x="860.47" y="258.84" width="45.1" height="34" rx="5.06" transform="translate(1766.04 551.68) rotate(180)"/>
    <path class="cls-4" d="M869.6,258.77h26.64l-1.73-9.27a4.11,4.11,0,0,0-4-3.45h-15.2a4,4,0,0,0-3.88,3.33Z"/>
    <path class="cls-4" d="M896.11,168.35H869.48l1.73,9.27a4.1,4.1,0,0,0,4,3.45h15.2a4,4,0,0,0,3.88-3.33Z"/>
    <g>
      <path class="cls-5" d="M868.78,200.83h28.48l-1.84,8.7a4.27,4.27,0,0,1-4.25,3.23H874.91a4.19,4.19,0,0,1-4.15-3.12Z"/>
      <path class="cls-5" d="M865.75,190.33h34.42l-2.23,8.74c-.49,1.89-2.64,3.25-5.13,3.25H873.16c-2.42,0-4.52-1.31-5-3.14Z"/>
      <path class="cls-5" d="M862.51,178h40.9l-2.65,10.7c-.58,2.32-3.13,4-6.1,4H871.31c-2.88,0-5.36-1.6-5.95-3.84Z"/>
      <path class="cls-5" d="M859,165.36h47.59l-3.09,12.35c-.66,2.66-3.63,4.59-7.09,4.59H869.25c-3.35,0-6.24-1.85-6.93-4.44Z"/>
    </g>
    <path class="cls-3" d="M911.62,163.18a5.23,5.23,0,0,1-5.25,5.1H859.23c-3.3,0-9.36-1-9.35-57,0-48.41,21-71.25,46.94-71.23h7.67a7.28,7.28,0,0,1,7.28,7.29v69C911.77,116.65,911.69,150.15,911.62,163.18Z"/>
    <path class="cls-3" d="M984.28,168.27a64.09,64.09,0,0,0,0-128.18H920.05l0,128.18Z"/>
    <path class="cls-6" d="M984.25,147.33a43.15,43.15,0,1,0,0-86.3H941v86.3Z"/>
    <rect class="cls-7" x="911.77" y="49.45" width="8.26" height="113.71"/>
    <line class="cls-8" x1="950.68" y1="61.03" x2="950.68" y2="147.33"/>
    <line class="cls-8" x1="960.7" y1="61.03" x2="960.7" y2="147.33"/>
    <line class="cls-8" x1="970.73" y1="61.03" x2="970.73" y2="147.33"/>
    <line class="cls-8" x1="980.75" y1="61.03" x2="980.75" y2="147.33"/>
    <line class="cls-8" x1="990.78" y1="61.52" x2="990.78" y2="146.84"/>
    <line class="cls-8" x1="1000.8" y1="64.31" x2="1000.8" y2="144.04"/>
    <line class="cls-8" x1="1010.82" y1="70.18" x2="1010.82" y2="138.18"/>
    <line class="cls-8" x1="1020.85" y1="80.24" x2="1020.85" y2="127.05"/>
    <line class="cls-8" x1="940.99" y1="104.18" x2="1027.4" y2="104.18"/>
    <line class="cls-8" x1="940.99" y1="115.71" x2="1027.4" y2="115.71"/>
    <line class="cls-8" x1="940.99" y1="127.23" x2="1020.85" y2="127.05"/>
    <line class="cls-8" x1="940.99" y1="138.76" x2="1010.06" y2="138.76"/>
    <line class="cls-8" x1="940.99" y1="92.21" x2="1027.4" y2="92.21"/>
    <line class="cls-8" x1="940.99" y1="80.24" x2="1020.16" y2="80.24"/>
    <line class="cls-8" x1="940.99" y1="68.27" x2="1008.19" y2="68.27"/>
  </g>
  <g id="A">
    <rect class="cls-1" x="819.41" y="244.48" width="10.66" height="20.06" rx="2.17" transform="translate(1649.49 509.01) rotate(-180)"/>
    <rect class="cls-1" x="661.15" y="244.48" width="10.66" height="20.06" rx="2.89" transform="translate(1332.95 509.01) rotate(-180)"/>
    <g>
      <path class="cls-1" d="M680.86,206.26,693.43,82.93c4.92.85,9.84,1.7,14.8,2.32l-12.55,123.2A141.9,141.9,0,0,0,680.86,206.26Z"/>
      <line class="cls-9" x1="707.91" y1="88.41" x2="693.04" y2="86.9"/>
      <line class="cls-9" x1="707.58" y1="91.64" x2="692.71" y2="90.12"/>
      <line class="cls-9" x1="707.25" y1="94.86" x2="692.38" y2="93.35"/>
      <line class="cls-9" x1="706.92" y1="98.09" x2="692.05" y2="96.57"/>
      <line class="cls-9" x1="706.59" y1="101.31" x2="691.72" y2="99.8"/>
      <line class="cls-9" x1="706.27" y1="104.54" x2="691.39" y2="103.03"/>
      <line class="cls-9" x1="705.94" y1="107.77" x2="691.06" y2="106.25"/>
      <line class="cls-9" x1="705.61" y1="110.99" x2="690.74" y2="109.48"/>
      <line class="cls-9" x1="705.28" y1="114.22" x2="690.41" y2="112.7"/>
      <line class="cls-9" x1="704.95" y1="117.44" x2="690.08" y2="115.93"/>
      <line class="cls-9" x1="704.62" y1="120.67" x2="689.75" y2="119.15"/>
      <line class="cls-9" x1="704.29" y1="123.89" x2="689.42" y2="122.38"/>
      <line class="cls-9" x1="703.97" y1="127.12" x2="689.09" y2="125.61"/>
      <line class="cls-9" x1="703.64" y1="130.35" x2="688.76" y2="128.83"/>
      <line class="cls-9" x1="703.31" y1="133.57" x2="688.44" y2="132.06"/>
      <line class="cls-9" x1="702.98" y1="136.8" x2="688.11" y2="135.28"/>
      <line class="cls-9" x1="702.65" y1="140.02" x2="687.78" y2="138.51"/>
      <line class="cls-9" x1="702.32" y1="143.25" x2="687.45" y2="141.73"/>
      <line class="cls-9" x1="701.99" y1="146.48" x2="687.12" y2="144.96"/>
      <line class="cls-9" x1="701.67" y1="149.7" x2="686.79" y2="148.19"/>
      <line class="cls-9" x1="701.34" y1="152.93" x2="686.46" y2="151.41"/>
      <line class="cls-9" x1="701.01" y1="156.15" x2="686.14" y2="154.64"/>
      <line class="cls-9" x1="700.68" y1="159.38" x2="685.81" y2="157.86"/>
      <line class="cls-9" x1="700.35" y1="162.6" x2="685.48" y2="161.09"/>
      <line class="cls-9" x1="700.02" y1="165.83" x2="685.15" y2="164.31"/>
      <line class="cls-9" x1="699.69" y1="169.06" x2="684.82" y2="167.54"/>
      <line class="cls-9" x1="699.37" y1="172.28" x2="684.49" y2="170.77"/>
      <line class="cls-9" x1="699.04" y1="175.51" x2="684.16" y2="173.99"/>
      <line class="cls-9" x1="698.71" y1="178.73" x2="683.84" y2="177.22"/>
      <line class="cls-9" x1="698.38" y1="181.96" x2="683.51" y2="180.44"/>
      <line class="cls-9" x1="698.05" y1="185.18" x2="683.18" y2="183.67"/>
      <line class="cls-9" x1="697.72" y1="188.41" x2="682.85" y2="186.9"/>
      <line class="cls-9" x1="697.39" y1="191.64" x2="682.52" y2="190.12"/>
      <line class="cls-9" x1="697.07" y1="194.86" x2="682.19" y2="193.35"/>
      <line class="cls-9" x1="696.74" y1="198.09" x2="681.86" y2="196.57"/>
      <line class="cls-9" x1="696.41" y1="201.31" x2="681.54" y2="199.8"/>
      <line class="cls-9" x1="696.08" y1="204.54" x2="681.21" y2="203.02"/>
    </g>
    <g>
      <path class="cls-1" d="M811.11,207.3,798.55,84c-4.92.86-9.85,1.7-14.81,2.32l12.55,123.2A142.69,142.69,0,0,1,811.11,207.3Z"/>
      <line class="cls-10" x1="784.07" y1="89.45" x2="798.94" y2="87.94"/>
      <line class="cls-10" x1="784.4" y1="92.68" x2="799.27" y2="91.16"/>
      <line class="cls-10" x1="784.72" y1="95.9" x2="799.6" y2="94.39"/>
      <line class="cls-10" x1="785.05" y1="99.13" x2="799.93" y2="97.62"/>
      <line class="cls-10" x1="785.38" y1="102.36" x2="800.25" y2="100.84"/>
      <line class="cls-10" x1="785.71" y1="105.58" x2="800.58" y2="104.07"/>
      <line class="cls-10" x1="786.04" y1="108.81" x2="800.91" y2="107.29"/>
      <line class="cls-10" x1="786.37" y1="112.03" x2="801.24" y2="110.52"/>
      <line class="cls-10" x1="786.7" y1="115.26" x2="801.57" y2="113.74"/>
      <line class="cls-10" x1="787.02" y1="118.48" x2="801.9" y2="116.97"/>
      <line class="cls-10" x1="787.35" y1="121.71" x2="802.23" y2="120.2"/>
      <line class="cls-10" x1="787.68" y1="124.94" x2="802.55" y2="123.42"/>
      <line class="cls-10" x1="788.01" y1="128.16" x2="802.88" y2="126.65"/>
      <line class="cls-10" x1="788.34" y1="131.39" x2="803.21" y2="129.87"/>
      <line class="cls-10" x1="788.67" y1="134.61" x2="803.54" y2="133.1"/>
      <line class="cls-10" x1="789" y1="137.84" x2="803.87" y2="136.32"/>
      <line class="cls-10" x1="789.32" y1="141.07" x2="804.2" y2="139.55"/>
      <line class="cls-10" x1="789.65" y1="144.29" x2="804.53" y2="142.78"/>
      <line class="cls-10" x1="789.98" y1="147.52" x2="804.85" y2="146"/>
      <line class="cls-10" x1="790.31" y1="150.74" x2="805.18" y2="149.23"/>
      <line class="cls-10" x1="790.64" y1="153.97" x2="805.51" y2="152.45"/>
      <line class="cls-10" x1="790.97" y1="157.19" x2="805.84" y2="155.68"/>
      <line class="cls-10" x1="791.3" y1="160.42" x2="806.17" y2="158.9"/>
      <line class="cls-10" x1="791.62" y1="163.65" x2="806.5" y2="162.13"/>
      <line class="cls-10" x1="791.95" y1="166.87" x2="806.83" y2="165.36"/>
      <line class="cls-10" x1="792.28" y1="170.1" x2="807.15" y2="168.58"/>
      <line class="cls-10" x1="792.61" y1="173.32" x2="807.48" y2="171.81"/>
      <line class="cls-10" x1="792.94" y1="176.55" x2="807.81" y2="175.03"/>
      <line class="cls-10" x1="793.27" y1="179.77" x2="808.14" y2="178.26"/>
      <line class="cls-10" x1="793.6" y1="183" x2="808.47" y2="181.49"/>
      <line class="cls-10" x1="793.92" y1="186.23" x2="808.8" y2="184.71"/>
      <line class="cls-10" x1="794.25" y1="189.45" x2="809.13" y2="187.94"/>
      <line class="cls-10" x1="794.58" y1="192.68" x2="809.45" y2="191.16"/>
      <line class="cls-10" x1="794.91" y1="195.9" x2="809.78" y2="194.39"/>
      <line class="cls-10" x1="795.24" y1="199.13" x2="810.11" y2="197.61"/>
      <line class="cls-10" x1="795.57" y1="202.35" x2="810.44" y2="200.84"/>
      <line class="cls-10" x1="795.9" y1="205.58" x2="810.77" y2="204.07"/>
    </g>
    <rect class="cls-4" x="677.84" y="203.64" width="20.07" height="15.39" transform="matrix(1, 0.06, -0.06, 1, 14.66, -42.86)"/>
    <path class="cls-3" d="M701.66,294.33h0a35.48,35.48,0,0,1-35.18-40.08l4-30.95a9.31,9.31,0,0,1,9.81-8.07l14.43.91a9.34,9.34,0,0,1,8.75,9.36l-.3,67.29A1.56,1.56,0,0,1,701.66,294.33Z"/>
    <rect class="cls-4" x="793.31" y="203.64" width="20.07" height="15.39" transform="translate(1618.41 371.71) rotate(176.39)"/>
    <path class="cls-3" d="M789.57,294.33h0a35.49,35.49,0,0,0,35.18-40.08l-4-30.95a9.3,9.3,0,0,0-9.81-8.07l-14.43.91a9.32,9.32,0,0,0-8.74,9.36l.3,67.29A1.54,1.54,0,0,0,789.57,294.33Z"/>
    <rect class="cls-1" x="703.34" y="247.56" width="84.6" height="14.91" transform="translate(1491.28 510.03) rotate(-180)"/>
    <path class="cls-11" d="M745.38,174.05A30.94,30.94,0,0,0,714.44,205V305.33a30.94,30.94,0,0,0,61.88,0V205A30.94,30.94,0,0,0,745.38,174.05Z"/>
    <path class="cls-4" d="M756.16,0H734.67c-5.49,0-16.22,46.42-16.22,46.42l-4.14,40.34c.06,4.14,3.48,6.08,7.63,6.08h47.19c4.24,0,7-3,7-7.29l-4-39.51S762.17,0,756.16,0Z"/>
    <rect class="cls-12" x="679.41" y="50.36" width="45.04" height="29.41" rx="3.25" transform="translate(566.06 756.79) rotate(-84.18)"/>
    <rect class="cls-12" x="774" y="41.79" width="29.41" height="45.04" rx="2.66" transform="translate(-2.46 80.26) rotate(-5.82)"/>
    <rect class="cls-1" x="803.09" y="49.46" width="6.53" height="22.61" transform="translate(-0.58 113.27) rotate(-8.03)"/>
    <rect class="cls-1" x="680.59" y="50.84" width="6.53" height="22.61" transform="translate(9.82 -68.98) rotate(5.82)"/>
  </g>
  <g id="R">
    <g>
      <path class="cls-1" d="M608.15,306.05,540.47,174.47c5.38-6.2,10.76-9.13,17.79-9.15l67.89,132C621.38,303.18,616.08,306.29,608.15,306.05Z"/>
      <line class="cls-13" x1="562.23" y1="173.03" x2="544.44" y2="182.18"/>
      <line class="cls-13" x1="564.21" y1="176.89" x2="546.43" y2="186.04"/>
      <line class="cls-13" x1="566.2" y1="180.75" x2="548.41" y2="189.9"/>
      <line class="cls-13" x1="568.18" y1="184.61" x2="550.4" y2="193.76"/>
      <line class="cls-13" x1="570.17" y1="188.46" x2="552.38" y2="197.61"/>
      <line class="cls-13" x1="572.15" y1="192.32" x2="554.37" y2="201.47"/>
      <line class="cls-13" x1="574.14" y1="196.18" x2="556.35" y2="205.33"/>
      <line class="cls-13" x1="576.12" y1="200.03" x2="558.34" y2="209.18"/>
      <line class="cls-13" x1="578.1" y1="203.89" x2="560.32" y2="213.04"/>
      <line class="cls-13" x1="580.09" y1="207.75" x2="562.3" y2="216.9"/>
      <line class="cls-13" x1="582.07" y1="211.61" x2="564.29" y2="220.76"/>
      <line class="cls-13" x1="584.06" y1="215.46" x2="566.27" y2="224.61"/>
      <line class="cls-13" x1="586.04" y1="219.32" x2="568.26" y2="228.47"/>
      <line class="cls-13" x1="588.03" y1="223.18" x2="570.24" y2="232.33"/>
      <line class="cls-13" x1="590.01" y1="227.04" x2="572.23" y2="236.19"/>
      <line class="cls-13" x1="592" y1="230.89" x2="574.21" y2="240.04"/>
      <line class="cls-13" x1="593.98" y1="234.75" x2="576.2" y2="243.9"/>
      <line class="cls-13" x1="595.97" y1="238.61" x2="578.18" y2="247.76"/>
      <line class="cls-13" x1="597.95" y1="242.47" x2="580.17" y2="251.62"/>
      <line class="cls-13" x1="599.94" y1="246.32" x2="582.15" y2="255.47"/>
      <line class="cls-13" x1="601.92" y1="250.18" x2="584.14" y2="259.33"/>
      <line class="cls-13" x1="603.9" y1="254.04" x2="586.12" y2="263.19"/>
      <line class="cls-13" x1="605.89" y1="257.89" x2="588.1" y2="267.04"/>
      <line class="cls-13" x1="607.87" y1="261.75" x2="590.09" y2="270.9"/>
      <line class="cls-13" x1="609.86" y1="265.61" x2="592.07" y2="274.76"/>
      <line class="cls-13" x1="611.84" y1="269.47" x2="594.06" y2="278.62"/>
      <line class="cls-13" x1="613.83" y1="273.32" x2="596.04" y2="282.47"/>
      <line class="cls-13" x1="615.81" y1="277.18" x2="598.03" y2="286.33"/>
      <line class="cls-13" x1="617.8" y1="281.04" x2="600.01" y2="290.19"/>
      <line class="cls-13" x1="619.78" y1="284.9" x2="602" y2="294.05"/>
      <line class="cls-13" x1="621.77" y1="288.75" x2="603.98" y2="297.9"/>
      <line class="cls-13" x1="623.75" y1="292.61" x2="605.97" y2="301.76"/>
    </g>
    <path class="cls-4" d="M567.68,176.44l-25,12.85,6.09,7.85a4.33,4.33,0,0,0,5.38,1.32l14.25-7.33a4.23,4.23,0,0,0,2-5Z"/>
    <rect class="cls-3" x="582.3" y="261.21" width="47.54" height="35.84" rx="5.34" transform="translate(1272.7 250.07) rotate(152.77)"/>
    <rect class="cls-12" x="489.35" y="53.73" width="82.15" height="12.6"/>
    <g>
      <path class="cls-1" d="M444,199.84V33.05C451.7,30,457.9,30,464.21,33.2V200.29C457.21,203.37,451,203.72,444,199.84Z"/>
      <line class="cls-14" x1="464.21" y1="37.49" x2="444.04" y2="37.49"/>
      <line class="cls-14" x1="464.21" y1="41.87" x2="444.04" y2="41.87"/>
      <line class="cls-14" x1="464.21" y1="46.24" x2="444.04" y2="46.24"/>
      <line class="cls-14" x1="464.21" y1="50.62" x2="444.04" y2="50.62"/>
      <line class="cls-14" x1="464.21" y1="54.99" x2="444.04" y2="54.99"/>
      <line class="cls-14" x1="464.21" y1="59.37" x2="444.04" y2="59.37"/>
      <line class="cls-14" x1="464.21" y1="63.74" x2="444.04" y2="63.74"/>
      <line class="cls-14" x1="464.21" y1="68.12" x2="444.04" y2="68.12"/>
      <line class="cls-14" x1="464.21" y1="72.49" x2="444.04" y2="72.49"/>
      <line class="cls-14" x1="464.21" y1="76.87" x2="444.04" y2="76.87"/>
      <line class="cls-14" x1="464.21" y1="81.24" x2="444.04" y2="81.24"/>
      <line class="cls-14" x1="464.21" y1="85.62" x2="444.04" y2="85.62"/>
      <line class="cls-14" x1="464.21" y1="89.99" x2="444.04" y2="89.99"/>
      <line class="cls-14" x1="464.21" y1="94.37" x2="444.04" y2="94.37"/>
      <line class="cls-14" x1="464.21" y1="98.74" x2="444.04" y2="98.74"/>
      <line class="cls-14" x1="464.21" y1="103.11" x2="444.04" y2="103.11"/>
      <line class="cls-14" x1="464.21" y1="107.49" x2="444.04" y2="107.49"/>
      <line class="cls-14" x1="464.21" y1="111.86" x2="444.04" y2="111.86"/>
      <line class="cls-14" x1="464.21" y1="116.24" x2="444.04" y2="116.24"/>
      <line class="cls-14" x1="464.21" y1="120.61" x2="444.04" y2="120.61"/>
      <line class="cls-14" x1="464.21" y1="124.99" x2="444.04" y2="124.99"/>
      <line class="cls-14" x1="464.21" y1="129.36" x2="444.04" y2="129.36"/>
      <line class="cls-14" x1="464.21" y1="133.74" x2="444.04" y2="133.74"/>
      <line class="cls-14" x1="464.21" y1="138.11" x2="444.04" y2="138.11"/>
      <line class="cls-14" x1="464.21" y1="142.49" x2="444.04" y2="142.49"/>
      <line class="cls-14" x1="464.21" y1="146.86" x2="444.04" y2="146.86"/>
      <line class="cls-14" x1="464.21" y1="151.24" x2="444.04" y2="151.24"/>
      <line class="cls-14" x1="464.21" y1="155.61" x2="444.04" y2="155.61"/>
      <line class="cls-14" x1="464.21" y1="159.99" x2="444.04" y2="159.99"/>
      <line class="cls-14" x1="464.21" y1="164.36" x2="444.04" y2="164.36"/>
      <line class="cls-14" x1="464.21" y1="168.74" x2="444.04" y2="168.74"/>
      <line class="cls-14" x1="464.21" y1="173.11" x2="444.04" y2="173.11"/>
      <line class="cls-14" x1="464.21" y1="177.49" x2="444.04" y2="177.49"/>
      <line class="cls-14" x1="464.21" y1="181.86" x2="444.04" y2="181.86"/>
      <line class="cls-14" x1="464.21" y1="186.24" x2="444.04" y2="186.24"/>
      <line class="cls-14" x1="464.21" y1="190.61" x2="444.04" y2="190.61"/>
      <line class="cls-14" x1="464.21" y1="194.99" x2="444.04" y2="194.99"/>
    </g>
    <g>
      <path class="cls-1" d="M443.71,300.21V133.42c7.69-3.08,13.88-3.08,20.19.15V300.66C456.9,303.74,450.71,304.09,443.71,300.21Z"/>
      <line class="cls-14" x1="463.9" y1="137.86" x2="443.73" y2="137.86"/>
      <line class="cls-14" x1="463.9" y1="142.24" x2="443.73" y2="142.24"/>
      <line class="cls-14" x1="463.9" y1="146.61" x2="443.73" y2="146.61"/>
      <line class="cls-14" x1="463.9" y1="150.99" x2="443.73" y2="150.99"/>
      <line class="cls-14" x1="463.9" y1="155.36" x2="443.73" y2="155.36"/>
      <line class="cls-14" x1="463.9" y1="159.74" x2="443.73" y2="159.74"/>
      <line class="cls-14" x1="463.9" y1="164.11" x2="443.73" y2="164.11"/>
      <line class="cls-14" x1="463.9" y1="168.49" x2="443.73" y2="168.49"/>
      <line class="cls-14" x1="463.9" y1="172.86" x2="443.73" y2="172.86"/>
      <line class="cls-14" x1="463.9" y1="177.24" x2="443.73" y2="177.24"/>
      <line class="cls-14" x1="463.9" y1="181.61" x2="443.73" y2="181.61"/>
      <line class="cls-14" x1="463.9" y1="185.99" x2="443.73" y2="185.99"/>
      <line class="cls-14" x1="463.9" y1="190.36" x2="443.73" y2="190.36"/>
      <line class="cls-14" x1="463.9" y1="194.74" x2="443.73" y2="194.74"/>
      <line class="cls-14" x1="463.9" y1="199.11" x2="443.73" y2="199.11"/>
      <line class="cls-14" x1="463.9" y1="203.48" x2="443.73" y2="203.48"/>
      <line class="cls-14" x1="463.9" y1="207.86" x2="443.73" y2="207.86"/>
      <line class="cls-14" x1="463.9" y1="212.23" x2="443.73" y2="212.23"/>
      <line class="cls-14" x1="463.9" y1="216.61" x2="443.73" y2="216.61"/>
      <line class="cls-14" x1="463.9" y1="220.98" x2="443.73" y2="220.98"/>
      <line class="cls-14" x1="463.9" y1="225.36" x2="443.73" y2="225.36"/>
      <line class="cls-14" x1="463.9" y1="229.73" x2="443.73" y2="229.73"/>
      <line class="cls-14" x1="463.9" y1="234.11" x2="443.73" y2="234.11"/>
      <line class="cls-14" x1="463.9" y1="238.48" x2="443.73" y2="238.48"/>
      <line class="cls-14" x1="463.9" y1="242.86" x2="443.73" y2="242.86"/>
      <line class="cls-14" x1="463.9" y1="247.23" x2="443.73" y2="247.23"/>
      <line class="cls-14" x1="463.9" y1="251.61" x2="443.73" y2="251.61"/>
      <line class="cls-14" x1="463.9" y1="255.98" x2="443.73" y2="255.98"/>
      <line class="cls-14" x1="463.9" y1="260.36" x2="443.73" y2="260.36"/>
      <line class="cls-14" x1="463.9" y1="264.73" x2="443.73" y2="264.73"/>
      <line class="cls-14" x1="463.9" y1="269.11" x2="443.73" y2="269.11"/>
      <line class="cls-14" x1="463.9" y1="273.48" x2="443.73" y2="273.48"/>
      <line class="cls-14" x1="463.9" y1="277.86" x2="443.73" y2="277.86"/>
      <line class="cls-14" x1="463.9" y1="282.23" x2="443.73" y2="282.23"/>
      <line class="cls-14" x1="463.9" y1="286.61" x2="443.73" y2="286.61"/>
      <line class="cls-14" x1="463.9" y1="290.98" x2="443.73" y2="290.98"/>
      <line class="cls-14" x1="463.9" y1="295.36" x2="443.73" y2="295.36"/>
    </g>
    <g>
      <path class="cls-1" d="M579,177.53l-.36-121.82c7.36-3,13.3-3,19.37.08l.35,121.69C591.68,180.46,585.75,181.23,579,177.53Z"/>
      <line class="cls-15" x1="598.05" y1="59.91" x2="578.69" y2="59.97"/>
      <line class="cls-15" x1="598.06" y1="64.11" x2="578.71" y2="64.17"/>
      <line class="cls-15" x1="598.08" y1="68.31" x2="578.72" y2="68.37"/>
      <line class="cls-15" x1="598.09" y1="72.51" x2="578.73" y2="72.57"/>
      <line class="cls-15" x1="598.1" y1="76.71" x2="578.74" y2="76.76"/>
      <line class="cls-15" x1="598.11" y1="80.91" x2="578.75" y2="80.96"/>
      <line class="cls-15" x1="598.12" y1="85.11" x2="578.77" y2="85.16"/>
      <line class="cls-15" x1="598.14" y1="89.31" x2="578.78" y2="89.36"/>
      <line class="cls-15" x1="598.15" y1="93.5" x2="578.79" y2="93.56"/>
      <line class="cls-15" x1="598.16" y1="97.7" x2="578.8" y2="97.76"/>
      <line class="cls-15" x1="598.17" y1="101.9" x2="578.81" y2="101.96"/>
      <line class="cls-15" x1="598.18" y1="106.1" x2="578.83" y2="106.16"/>
      <line class="cls-15" x1="598.2" y1="110.3" x2="578.84" y2="110.35"/>
      <line class="cls-15" x1="598.21" y1="114.5" x2="578.85" y2="114.55"/>
      <line class="cls-15" x1="598.22" y1="118.7" x2="578.86" y2="118.75"/>
      <line class="cls-15" x1="598.23" y1="122.89" x2="578.87" y2="122.95"/>
      <line class="cls-15" x1="598.24" y1="127.09" x2="578.89" y2="127.15"/>
      <line class="cls-15" x1="598.26" y1="131.29" x2="578.9" y2="131.35"/>
      <line class="cls-15" x1="598.27" y1="135.49" x2="578.91" y2="135.55"/>
      <line class="cls-15" x1="598.28" y1="139.69" x2="578.92" y2="139.74"/>
      <line class="cls-15" x1="598.29" y1="143.89" x2="578.93" y2="143.94"/>
      <line class="cls-15" x1="598.3" y1="148.09" x2="578.95" y2="148.14"/>
      <line class="cls-15" x1="598.32" y1="152.29" x2="578.96" y2="152.34"/>
      <line class="cls-15" x1="598.33" y1="156.48" x2="578.97" y2="156.54"/>
      <line class="cls-15" x1="598.34" y1="160.68" x2="578.98" y2="160.74"/>
      <line class="cls-15" x1="598.35" y1="164.88" x2="578.99" y2="164.94"/>
    </g>
    <rect class="cls-3" x="430.35" y="148.82" width="46.02" height="34.69" rx="4.49"/>
    <rect class="cls-3" x="568.73" y="42.02" width="46.02" height="34.69" rx="5.17" transform="translate(1183.47 118.73) rotate(180)"/>
    <rect class="cls-3" x="430.36" y="258.42" width="46.02" height="34.69" rx="4.83"/>
    <rect class="cls-3" x="430.35" y="42.37" width="46.02" height="34.69" rx="4.37"/>
    <path class="cls-4" d="M476.37,152.58v27.17l9.46-1.77a4.19,4.19,0,0,0,3.52-4v-15.5a4.1,4.1,0,0,0-3.4-4Z"/>
    <path class="cls-4" d="M439.77,149.47h27.17L465.18,140a4.18,4.18,0,0,0-4.05-3.52H445.62a4.1,4.1,0,0,0-3.95,3.39Z"/>
    <path class="cls-4" d="M574.94,160.67l27.17-.07-1.79-9.46a4.19,4.19,0,0,0-4.06-3.51l-15.51.05a4.09,4.09,0,0,0-3.94,3.41Z"/>
    <path class="cls-4" d="M439.77,76.68h27.17l-1.76,9.46a4.18,4.18,0,0,1-4.05,3.52H445.62a4.1,4.1,0,0,1-3.95-3.4Z"/>
    <path class="cls-4" d="M575.05,76.68h27.17l-1.76,9.46a4.19,4.19,0,0,1-4.05,3.52H580.9a4.1,4.1,0,0,1-3.95-3.4Z"/>
    <path class="cls-4" d="M440.22,183h27.17l-1.76,9.46a4.18,4.18,0,0,1-4.05,3.51H446.07a4.09,4.09,0,0,1-3.95-3.39Z"/>
    <path class="cls-4" d="M440.54,258.28h27.17L466,248.82a4.21,4.21,0,0,0-4.05-3.52H446.39a4.1,4.1,0,0,0-4,3.4Z"/>
    <path class="cls-12" d="M489.35,160.68H607.44a7.3,7.3,0,0,1,7.3,7.3v5.29a0,0,0,0,1,0,0H489.35a0,0,0,0,1,0,0v-12.6A0,0,0,0,1,489.35,160.68Z"/>
    <path class="cls-3" d="M539.86,150.59h26.91a3.89,3.89,0,0,1,3.89,3.9v18.36a3.9,3.9,0,0,1-3.89,3.9l-26.91,14.47a3.9,3.9,0,0,1-3.9-3.89V154.49A3.9,3.9,0,0,1,539.86,150.59Z"/>
    <path class="cls-4" d="M476.37,46.13V73.3l9.46-1.76a4.2,4.2,0,0,0,3.52-4.05V52a4.1,4.1,0,0,0-3.4-4Z"/>
    <path class="cls-4" d="M568.87,73V45.78l-9.46,1.76a4.19,4.19,0,0,0-3.51,4.05V67.1a4.1,4.1,0,0,0,3.39,4Z"/>
  </g>
  <g id="C">
    <ellipse class="cls-12" cx="228.6" cy="162.56" rx="22.6" ry="33.39"/>
    <path class="cls-1" d="M228.5,197.39s53,95.72,85,95.71C351.34,293.1,414,179.75,414,179.75S347.41,253.2,317.5,251c-25.12-1.84-57.46-57.1-58.16-82.28-.77-27.86,31.5-91.36,59.2-94.45,28.89-3.23,94.93,67.11,94.93,67.11S352.65,39.42,317.58,39c-31.78-.4-89.22,90.59-89.22,90.59l.14,67.82"/>
  </g>
  <g id="S">
    <g>
      <path class="cls-1" d="M15.64,197.79V31c7.69-3.08,13.88-3.08,20.19.14v167.1C28.83,201.32,22.64,201.66,15.64,197.79Z"/>
      <line class="cls-14" x1="35.83" y1="35.44" x2="15.66" y2="35.44"/>
      <line class="cls-14" x1="35.83" y1="39.81" x2="15.66" y2="39.81"/>
      <line class="cls-14" x1="35.83" y1="44.19" x2="15.66" y2="44.19"/>
      <line class="cls-14" x1="35.83" y1="48.56" x2="15.66" y2="48.56"/>
      <line class="cls-14" x1="35.83" y1="52.94" x2="15.66" y2="52.94"/>
      <line class="cls-14" x1="35.83" y1="57.31" x2="15.66" y2="57.31"/>
      <line class="cls-14" x1="35.83" y1="61.69" x2="15.66" y2="61.69"/>
      <line class="cls-14" x1="35.83" y1="66.06" x2="15.66" y2="66.06"/>
      <line class="cls-14" x1="35.83" y1="70.44" x2="15.66" y2="70.44"/>
      <line class="cls-14" x1="35.83" y1="74.81" x2="15.66" y2="74.81"/>
      <line class="cls-14" x1="35.83" y1="79.19" x2="15.66" y2="79.19"/>
      <line class="cls-14" x1="35.83" y1="83.56" x2="15.66" y2="83.56"/>
      <line class="cls-14" x1="35.83" y1="87.94" x2="15.66" y2="87.94"/>
      <line class="cls-14" x1="35.83" y1="92.31" x2="15.66" y2="92.31"/>
      <line class="cls-14" x1="35.83" y1="96.69" x2="15.66" y2="96.69"/>
      <line class="cls-14" x1="35.83" y1="101.06" x2="15.66" y2="101.06"/>
      <line class="cls-14" x1="35.83" y1="105.44" x2="15.66" y2="105.44"/>
      <line class="cls-14" x1="35.83" y1="109.81" x2="15.66" y2="109.81"/>
      <line class="cls-14" x1="35.83" y1="114.19" x2="15.66" y2="114.19"/>
      <line class="cls-14" x1="35.83" y1="118.56" x2="15.66" y2="118.56"/>
      <line class="cls-14" x1="35.83" y1="122.94" x2="15.66" y2="122.94"/>
      <line class="cls-14" x1="35.83" y1="127.31" x2="15.66" y2="127.31"/>
      <line class="cls-14" x1="35.83" y1="131.69" x2="15.66" y2="131.69"/>
      <line class="cls-14" x1="35.83" y1="136.06" x2="15.66" y2="136.06"/>
      <line class="cls-14" x1="35.83" y1="140.44" x2="15.66" y2="140.44"/>
      <line class="cls-14" x1="35.83" y1="144.81" x2="15.66" y2="144.81"/>
      <line class="cls-14" x1="35.83" y1="149.19" x2="15.66" y2="149.19"/>
      <line class="cls-14" x1="35.83" y1="153.56" x2="15.66" y2="153.56"/>
      <line class="cls-14" x1="35.83" y1="157.94" x2="15.66" y2="157.94"/>
      <line class="cls-14" x1="35.83" y1="162.31" x2="15.66" y2="162.31"/>
      <line class="cls-14" x1="35.83" y1="166.69" x2="15.66" y2="166.69"/>
      <line class="cls-14" x1="35.83" y1="171.06" x2="15.66" y2="171.06"/>
      <line class="cls-14" x1="35.83" y1="175.43" x2="15.66" y2="175.43"/>
      <line class="cls-14" x1="35.83" y1="179.81" x2="15.66" y2="179.81"/>
      <line class="cls-14" x1="35.83" y1="184.18" x2="15.66" y2="184.18"/>
      <line class="cls-14" x1="35.83" y1="188.56" x2="15.66" y2="188.56"/>
      <line class="cls-14" x1="35.83" y1="192.93" x2="15.66" y2="192.93"/>
    </g>
    <g>
      <path class="cls-1" d="M155.65,297.08V137c7.38-3,13.32-3,19.38.13V297.51C168.31,300.47,162.37,300.8,155.65,297.08Z"/>
      <line class="cls-15" x1="175.03" y1="141.26" x2="155.67" y2="141.26"/>
      <line class="cls-15" x1="175.03" y1="145.46" x2="155.67" y2="145.46"/>
      <line class="cls-15" x1="175.03" y1="149.66" x2="155.67" y2="149.66"/>
      <line class="cls-15" x1="175.03" y1="153.86" x2="155.67" y2="153.86"/>
      <line class="cls-15" x1="175.03" y1="158.06" x2="155.67" y2="158.06"/>
      <line class="cls-15" x1="175.03" y1="162.26" x2="155.67" y2="162.26"/>
      <line class="cls-15" x1="175.03" y1="166.46" x2="155.67" y2="166.46"/>
      <line class="cls-15" x1="175.03" y1="170.66" x2="155.67" y2="170.66"/>
      <line class="cls-15" x1="175.03" y1="174.85" x2="155.67" y2="174.85"/>
      <line class="cls-15" x1="175.03" y1="179.05" x2="155.67" y2="179.05"/>
      <line class="cls-15" x1="175.03" y1="183.25" x2="155.67" y2="183.25"/>
      <line class="cls-15" x1="175.03" y1="187.45" x2="155.67" y2="187.45"/>
      <line class="cls-15" x1="175.03" y1="191.65" x2="155.67" y2="191.65"/>
      <line class="cls-15" x1="175.03" y1="195.85" x2="155.67" y2="195.85"/>
      <line class="cls-15" x1="175.03" y1="200.05" x2="155.67" y2="200.05"/>
      <line class="cls-15" x1="175.03" y1="204.25" x2="155.67" y2="204.25"/>
      <line class="cls-15" x1="175.03" y1="208.44" x2="155.67" y2="208.44"/>
      <line class="cls-15" x1="175.03" y1="212.64" x2="155.67" y2="212.64"/>
      <line class="cls-15" x1="175.03" y1="216.84" x2="155.67" y2="216.84"/>
      <line class="cls-15" x1="175.03" y1="221.04" x2="155.67" y2="221.04"/>
      <line class="cls-15" x1="175.03" y1="225.24" x2="155.67" y2="225.24"/>
      <line class="cls-15" x1="175.03" y1="229.44" x2="155.67" y2="229.44"/>
      <line class="cls-15" x1="175.03" y1="233.64" x2="155.67" y2="233.64"/>
      <line class="cls-15" x1="175.03" y1="237.83" x2="155.67" y2="237.83"/>
      <line class="cls-15" x1="175.03" y1="242.03" x2="155.67" y2="242.03"/>
      <line class="cls-15" x1="175.03" y1="246.23" x2="155.67" y2="246.23"/>
      <line class="cls-15" x1="175.03" y1="250.43" x2="155.67" y2="250.43"/>
      <line class="cls-15" x1="175.03" y1="254.63" x2="155.67" y2="254.63"/>
      <line class="cls-15" x1="175.03" y1="258.83" x2="155.67" y2="258.83"/>
      <line class="cls-15" x1="175.03" y1="263.03" x2="155.67" y2="263.03"/>
      <line class="cls-15" x1="175.03" y1="267.23" x2="155.67" y2="267.23"/>
      <line class="cls-15" x1="175.03" y1="271.42" x2="155.67" y2="271.42"/>
      <line class="cls-15" x1="175.03" y1="275.62" x2="155.67" y2="275.62"/>
      <line class="cls-15" x1="175.03" y1="279.82" x2="155.67" y2="279.82"/>
      <line class="cls-15" x1="175.03" y1="284.02" x2="155.67" y2="284.02"/>
      <line class="cls-15" x1="175.03" y1="288.22" x2="155.67" y2="288.22"/>
      <line class="cls-15" x1="175.03" y1="292.42" x2="155.67" y2="292.42"/>
    </g>
    <rect class="cls-3" x="1.97" y="146.76" width="46.02" height="34.69" rx="4.49"/>
    <rect class="cls-3" x="142.34" y="147.26" width="46.02" height="34.69" rx="5.17"/>
    <rect class="cls-3" x="1.67" y="247.53" width="46.02" height="49.35" rx="6.16" transform="translate(-247.53 296.87) rotate(-90)"/>
    <rect class="cls-3" x="136.68" y="40.31" width="46.02" height="34.69" rx="5.17" transform="translate(217.35 -102.03) rotate(90)"/>
    <rect class="cls-3" x="140.9" y="251.86" width="46.02" height="34.69" rx="4.83"/>
    <rect class="cls-3" x="1.97" y="40.31" width="46.02" height="34.69" rx="4.37"/>
    <path class="cls-4" d="M48,150.52v27.17l9.46-1.76A4.2,4.2,0,0,0,61,171.88V156.37a4.12,4.12,0,0,0-3.4-4Z"/>
    <path class="cls-4" d="M142.34,178.19V151l-9.46,1.76a4.2,4.2,0,0,0-3.52,4.05v15.51a4.1,4.1,0,0,0,3.4,3.95Z"/>
    <rect class="cls-12" x="60.97" y="158.62" width="68.39" height="13.26"/>
    <path class="cls-4" d="M48,44.07V71.24l9.46-1.76a4.2,4.2,0,0,0,3.52-4V49.92a4.1,4.1,0,0,0-3.4-4Z"/>
    <path class="cls-4" d="M142.34,71.24V44.07l-9.46,1.76a4.21,4.21,0,0,0-3.52,4.05V65.39a4.1,4.1,0,0,0,3.4,4Z"/>
    <rect class="cls-12" x="60.97" y="51.68" width="68.39" height="13.75"/>
    <path class="cls-4" d="M49,257.61v27.17L58.43,283A4.19,4.19,0,0,0,62,279V263.46a4.1,4.1,0,0,0-3.4-3.95Z"/>
    <path class="cls-4" d="M140.9,284.8V257.62l-9.46,1.77a4.18,4.18,0,0,0-3.51,4.05V279a4.09,4.09,0,0,0,3.39,3.95Z"/>
    <rect class="cls-12" x="61.95" y="264.46" width="65.98" height="11.08"/>
  </g>
</svg>
